<svg width="77" height="86" viewBox="0 0 77 86" fill="none" xmlns="http://www.w3.org/2000/svg">
<circle cx="43.9577" cy="14.4073" r="5.06996" transform="rotate(-27.6161 43.9577 14.4073)" fill="#F86D13"/>
<circle cx="18.9089" cy="28.0475" r="5.06996" transform="rotate(-27.6161 18.9089 28.0475)" fill="#F86D13"/>
<rect x="22.1133" y="24.9414" width="20.5967" height="1.90123" transform="rotate(-27.6161 22.1133 24.9414)" fill="#F86D13"/>
<circle cx="31.2652" cy="21.5852" r="5.54527" transform="rotate(-27.6161 31.2652 21.5852)" fill="#029C84"/>
<rect x="15.5264" y="36.1074" width="6.33745" height="25.3498" rx="3.16872" fill="white"/>
<rect x="28.2021" y="29.771" width="6.33745" height="31.6872" rx="3.16872" fill="white"/>
<rect x="40.874" y="23.4326" width="6.33745" height="38.0247" rx="3.16872" fill="white"/>
<path d="M53.789 23.4326C59.8704 23.4326 64.8007 28.363 64.8007 34.4443C64.8005 40.5256 59.8703 45.4551 53.789 45.4551C52.0459 45.455 50.3986 45.0488 48.9345 44.3268C48.3927 44.0596 48.7493 43.2373 49.3534 43.2373C54.2098 43.2373 58.1474 39.3007 58.1474 34.4443C58.1473 29.588 54.2097 25.6514 49.3534 25.6514C48.7486 25.6514 48.3915 24.8284 48.934 24.5609C50.3982 23.8389 52.0458 23.4326 53.789 23.4326Z" fill="white"/>
<path d="M11.5836 75.8838L9.25809 66.7895H10.8951L12.4801 73.0061L14.065 66.7895H15.5136L17.0986 73.0061L18.6771 66.7895H20.3141L18.0016 75.8838H16.2022L14.7861 70.3753L13.3895 75.8838H11.5836ZM28.3023 76.0527C27.6874 76.0527 27.1092 75.9314 26.5679 75.6889C26.0266 75.4421 25.5502 75.1021 25.1388 74.6691C24.7274 74.236 24.4048 73.7358 24.1709 73.1685C23.9371 72.5969 23.8201 71.9863 23.8201 71.3367C23.8201 70.6871 23.9371 70.0786 24.1709 69.5113C24.4048 68.9397 24.7274 68.4373 25.1388 68.0043C25.5502 67.5712 26.0266 67.2334 26.5679 66.9909C27.1092 66.7441 27.6874 66.6207 28.3023 66.6207C28.9216 66.6207 29.5019 66.7441 30.0432 66.9909C30.5845 67.2334 31.0609 67.5712 31.4723 68.0043C31.8837 68.4373 32.2042 68.9397 32.4337 69.5113C32.6675 70.0786 32.7845 70.6871 32.7845 71.3367C32.7845 71.9863 32.6675 72.5969 32.4337 73.1685C32.2042 73.7358 31.8837 74.236 31.4723 74.6691C31.0609 75.1021 30.5845 75.4421 30.0432 75.6889C29.5019 75.9314 28.9216 76.0527 28.3023 76.0527ZM28.3023 74.4677C28.7007 74.4677 29.0753 74.3854 29.4261 74.2208C29.7769 74.0563 30.0843 73.8311 30.3485 73.5453C30.617 73.2551 30.8249 72.9217 30.9721 72.5449C31.1237 72.1681 31.1995 71.7654 31.1995 71.3367C31.1995 70.9079 31.1237 70.5052 30.9721 70.1284C30.8205 69.7473 30.6105 69.4139 30.342 69.1281C30.0778 68.8422 29.7704 68.6171 29.4196 68.4525C29.0731 68.2879 28.7007 68.2057 28.3023 68.2057C27.9039 68.2057 27.5293 68.2879 27.1785 68.4525C26.8277 68.6171 26.5181 68.8444 26.2496 69.1346C25.9854 69.4204 25.7776 69.7517 25.626 70.1284C25.4788 70.5052 25.4051 70.9079 25.4051 71.3367C25.4051 71.7697 25.4809 72.1746 25.6325 72.5514C25.7841 72.9282 25.9919 73.2616 26.2561 73.5518C26.5246 73.8376 26.8321 74.0628 27.1785 74.2273C27.5293 74.3876 27.9039 74.4677 28.3023 74.4677ZM36.8216 75.8838V66.7895H40.3098C40.8035 66.7895 41.2496 66.913 41.648 67.1598C42.0464 67.4067 42.3625 67.7379 42.5964 68.1537C42.8302 68.5651 42.9472 69.022 42.9472 69.5243C42.9472 69.9357 42.8714 70.3147 42.7198 70.6611C42.5726 71.0032 42.3647 71.2999 42.0962 71.551C41.832 71.8022 41.5267 71.9928 41.1803 72.1227L43.3564 75.8838H41.5311L39.4264 72.2656H38.4065V75.8838H36.8216ZM38.4065 70.6806H40.128C40.3532 70.6806 40.5589 70.6243 40.7451 70.5117C40.9313 70.3991 41.0807 70.2475 41.1933 70.057C41.3059 69.8664 41.3622 69.6542 41.3622 69.4204C41.3622 69.1822 41.3059 68.9678 41.1933 68.7773C41.0807 68.5867 40.9313 68.4352 40.7451 68.3226C40.5589 68.21 40.3532 68.1537 40.128 68.1537H38.4065V70.6806ZM54.1023 75.8838H52.0366L49.4838 72.3175L49.042 72.8437V75.8838H47.457V66.7895H49.042V70.3818L52.0496 66.7895H54.1218L50.5166 71.0768L54.1023 75.8838ZM61.0112 76.0527C60.5089 76.0527 60.026 75.9747 59.5626 75.8188C59.1036 75.6586 58.7008 75.4312 58.3544 75.1368C58.008 74.838 57.7589 74.4807 57.6074 74.0649L59.0949 73.5193C59.1556 73.6925 59.279 73.8506 59.4652 73.9935C59.6514 74.1364 59.8788 74.2512 60.1473 74.3378C60.4158 74.4244 60.7037 74.4677 61.0112 74.4677C61.3273 74.4677 61.6218 74.42 61.8947 74.3248C62.1718 74.2252 62.3948 74.0888 62.5637 73.9155C62.7326 73.738 62.8171 73.5323 62.8171 73.2984C62.8171 73.0602 62.7283 72.8654 62.5507 72.7138C62.3732 72.5579 62.1458 72.4345 61.8687 72.3435C61.5915 72.2526 61.3057 72.1833 61.0112 72.1357C60.366 72.0361 59.7878 71.8823 59.2768 71.6745C58.7658 71.4666 58.3609 71.1786 58.0621 70.8105C57.7676 70.4424 57.6204 69.966 57.6204 69.3814C57.6204 68.8314 57.7784 68.3507 58.0946 67.9393C58.4107 67.5279 58.8264 67.2075 59.3418 66.9779C59.8571 66.7484 60.4136 66.6336 61.0112 66.6336C61.5092 66.6336 61.9899 66.7116 62.4533 66.8675C62.9167 67.0234 63.3216 67.2508 63.668 67.5496C64.0188 67.8484 64.27 68.2078 64.4216 68.6279L62.9275 69.167C62.8669 68.9938 62.7435 68.8358 62.5572 68.6928C62.371 68.5499 62.1437 68.4373 61.8752 68.3551C61.6067 68.2684 61.3187 68.2251 61.0112 68.2251C60.7037 68.2208 60.4114 68.2706 60.1343 68.3745C59.8614 68.4741 59.6384 68.6106 59.4652 68.7838C59.292 68.957 59.2054 69.1562 59.2054 69.3814C59.2054 69.6716 59.2855 69.8903 59.4457 70.0375C59.6103 70.1847 59.829 70.293 60.1018 70.3623C60.3746 70.4272 60.6778 70.4879 61.0112 70.5442C61.6175 70.6394 62.1783 70.7997 62.6936 71.0249C63.209 71.2501 63.6226 71.551 63.9344 71.9278C64.2462 72.3002 64.4021 72.7571 64.4021 73.2984C64.4021 73.8484 64.2462 74.3313 63.9344 74.747C63.6226 75.1584 63.209 75.4789 62.6936 75.7084C62.1783 75.9379 61.6175 76.0527 61.0112 76.0527Z" fill="#3589FF"/>
</svg>
